<?xml version="1.0" encoding="UTF-8" standalone="no"?>
<!-- Created with Inkscape (http://www.inkscape.org/) -->

<svg
   xmlns:dc="http://purl.org/dc/elements/1.1/"
   xmlns:cc="http://creativecommons.org/ns#"
   xmlns:rdf="http://www.w3.org/1999/02/22-rdf-syntax-ns#"
   xmlns:svg="http://www.w3.org/2000/svg"
   xmlns="http://www.w3.org/2000/svg"
   xmlns:sodipodi="http://sodipodi.sourceforge.net/DTD/sodipodi-0.dtd"
   xmlns:inkscape="http://www.inkscape.org/namespaces/inkscape"
   width="123.74729"
   height="235.47118"
   viewBox="0 0 32.74147 62.30175"
   version="1.1"
   id="svg1467"
   inkscape:version="0.92.4 (5da689c313, 2019-01-14)"
   sodipodi:docname="ship.svg">
  <defs
     id="defs1461" />
  <sodipodi:namedview
     id="base"
     pagecolor="#ffffff"
     bordercolor="#666666"
     borderopacity="1.0"
     inkscape:pageopacity="0.0"
     inkscape:pageshadow="2"
     inkscape:zoom="1.4"
     inkscape:cx="232.64864"
     inkscape:cy="154.68433"
     inkscape:document-units="mm"
     inkscape:current-layer="layer1"
     showgrid="false"
     units="px"
     fit-margin-top="0"
     fit-margin-left="0"
     fit-margin-right="0"
     fit-margin-bottom="0"
     inkscape:window-width="1920"
     inkscape:window-height="1057"
     inkscape:window-x="1912"
     inkscape:window-y="-8"
     inkscape:window-maximized="1" />
  <metadata
     id="metadata1464">
    <rdf:RDF>
      <cc:Work
         rdf:about="">
        <dc:format>image/svg+xml</dc:format>
        <dc:type
           rdf:resource="http://purl.org/dc/dcmitype/StillImage" />
        <dc:title />
      </cc:Work>
    </rdf:RDF>
  </metadata>
  <g
     inkscape:label="Layer 1"
     inkscape:groupmode="layer"
     id="layer1"
     transform="translate(-69.807853,-98.027661)">
    <path
       sodipodi:nodetypes="ccccccscscsccsscccsccc"
       id="path1247-5"
       d="m 82.38319,153.88504 c -0.567044,-1.85434 -0.601678,-1.76412 -0.03067,-3.42695 0.0019,-0.11703 -3.031243,-0.71882 -6.337596,-0.83373 l -6.01155,-0.20898 -0.09778,-1.48074 -0.09774,-1.48073 5.511986,0.0918 c 3.031641,0.0505 5.794494,-0.0112 6.139743,-0.1372 0.554779,-0.20234 0.652781,-1.73448 0.843396,-13.18451 0.202294,-12.15153 0.268768,-13.09058 1.071408,-15.1316 0.919405,-2.33805 2.554244,-4.50204 3.390634,-4.48812 0.691872,0.0115 2.731963,3.40724 3.231426,5.37858 0.249082,0.98324 0.322419,6.37968 0.193199,14.22235 -0.154843,9.30119 -0.08534,12.76495 0.257122,13.11901 0.318541,0.32933 2.244117,0.51068 6.104065,0.57494 l 5.638757,0.0939 -0.0263,1.57727 -0.0263,1.57728 -6.154137,-0.10245 c -5.712261,-0.0951 -6.133469,-0.0525 -5.866176,0.59259 0.300034,1.11164 1.03145,3.25886 -0.290472,3.24919 z"
       style="fill:#ff7f2a;fill-opacity:1;stroke:#000000;stroke-width:1.5;stroke-opacity:1"
       inkscape:connector-curvature="0" />
    <path
       id="path1257-9"
       d="m 72.013876,157.9038 c 0.01024,-0.61542 -0.261807,-1.01729 -0.788168,-1.16434 -0.777038,-0.21709 -0.781645,-0.27448 -0.138724,-1.72466 0.365801,-0.82501 0.802221,-2.20775 0.969816,-3.0727 l 0.304726,-1.57264 2.114022,0.0352 c 2.342372,0.039 2.279548,-0.0255 3.321069,3.40793 0.363736,1.1992 0.734008,2.38013 0.822793,2.62426 0.08874,0.24413 -0.205106,0.53324 -0.653061,0.64246 -0.494768,0.12062 -0.819882,0.52261 -0.82823,1.02411 -0.01254,0.75319 -0.238426,0.8218 -2.576816,0.78288 -2.43764,-0.0406 -2.562306,-0.0887 -2.547427,-0.98249 z"
       style="fill:#ac9393;fill-opacity:1;stroke:#000000;stroke-width:1.5;stroke-opacity:1"
       inkscape:connector-curvature="0" />
    <path
       id="path1259-8"
       d="m 94.49005,158.27797 c 0.0101,-0.60646 -0.261336,-1.01716 -0.765359,-1.15796 -0.746179,-0.2085 -0.752303,-0.2837 -0.137995,-1.68785 0.35365,-0.80829 0.779113,-2.19389 0.945428,-3.0791 l 0.30242,-1.60948 2.344068,0.039 2.344068,0.039 0.250633,1.58188 c 0.137844,0.87004 0.519217,2.24628 0.847477,3.05827 0.7539,1.86486 0.75034,1.89868 -0.19878,1.88288 -0.578349,-0.01 -0.793016,0.24977 -0.80505,0.97267 -0.01582,0.95043 -0.108406,0.98427 -2.579484,0.94313 -2.437639,-0.0406 -2.562306,-0.0887 -2.547426,-0.98249 z"
       style="fill:#ac9393;fill-opacity:1;stroke:#000000;stroke-width:1.5;stroke-opacity:1"
       inkscape:connector-curvature="0" />
    <path
       id="path1261-9"
       d="m 70.045367,143.49528 c -0.125311,-0.34347 -0.114248,-1.28045 0.02441,-2.08218 0.197779,-1.14276 0.70976,-1.8306 2.369758,-3.18393 1.164617,-0.94945 3.519244,-3.05633 5.232566,-4.68196 l 3.115056,-2.9557 -0.219804,6.73755 -0.219842,6.73755 -5.037251,0.0266 c -4.285759,0.0226 -5.071196,-0.0667 -5.265009,-0.59792 z"
       style="fill:#0000ff;fill-opacity:1;stroke:#000000;stroke-width:1.5;stroke-opacity:1"
       inkscape:connector-curvature="0" />
    <path
       id="path1263-8"
       d="m 91.840947,144.15185 c -0.100298,-0.16847 -0.119549,-3.24841 -0.0428,-6.84432 l 0.139607,-6.53796 1.117471,1.31627 c 0.614576,0.72395 2.854989,2.8811 4.978619,4.7937 3.063186,2.7587 3.939426,3.78847 4.239786,4.98263 0.6758,2.68717 0.50552,2.77509 -5.18958,2.68028 -2.783378,-0.0463 -5.142761,-0.22209 -5.243059,-0.3906 z"
       style="fill:#0000ff;fill-opacity:1;stroke:#000000;stroke-width:1.5;stroke-opacity:1"
       inkscape:connector-curvature="0" />
    <path
       id="path1265-6"
       d="m 72.671295,124.34541 c 0.297776,-11.01142 0.316162,-11.19417 1.320602,-13.12214 0.56024,-1.07535 1.192592,-1.95228 1.405249,-1.94874 0.212656,0.004 0.820415,0.81237 1.350575,1.79741 0.940876,1.74815 0.963275,2.00904 0.936507,10.90961 l -0.02744,9.11865 -2.062108,1.89056 c -3.511706,3.21951 -3.264011,3.95198 -2.923385,-8.64535 z"
       style="fill:#ff7f2a;fill-opacity:1;stroke:#000000;stroke-width:1.5;stroke-opacity:1"
       inkscape:connector-curvature="0" />
    <path
       id="path1267-8"
       d="m 98.64518,134.82445 c -0.641484,-0.56 -1.74613,-1.55448 -2.454735,-2.20987 l -1.288401,-1.19168 0.273703,-8.93511 c 0.263948,-8.6169 0.309967,-9.0048 1.292323,-10.89034 0.560241,-1.07535 1.19585,-1.93946 1.412466,-1.92027 0.216613,0.0194 0.868581,1.01102 1.448805,2.20397 l 1.054959,2.16905 -0.28639,10.89624 -0.286397,10.89623 z"
       style="fill:#ff7f2a;fill-opacity:1;stroke:#000000;stroke-width:1.5;stroke-opacity:1"
       inkscape:connector-curvature="0" />
    <path
       id="path1269-2"
       d="m 79.787034,118.79065 c 0.108721,-6.29381 0.325722,-9.64319 0.715551,-11.00884 0.841399,-2.94772 2.518193,-5.85253 4.56673,-7.911146 l 1.833928,-1.843003 1.870103,2.094389 c 2.003728,2.24404 3.579124,5.30216 4.177062,8.1083 0.203556,0.95534 0.302321,5.72944 0.219469,10.60911 -0.132141,7.70063 -0.222079,8.77442 -0.691959,8.1322 -0.367991,-0.50291 -0.493534,-1.57875 -0.391951,-3.35916 0.271944,-4.76616 -0.638666,-8.04802 -3.051132,-10.99622 -1.746881,-2.13481 -3.00711,-2.07371 -5.030928,0.2439 -2.286346,2.61825 -3.010075,4.79284 -3.103469,9.32488 -0.06193,3.00924 -0.246932,4.34651 -0.677011,4.89585 -0.525751,0.67155 -0.574386,-0.25238 -0.436393,-8.29026 z"
       style="fill:#ff7f2a;fill-opacity:1;stroke:#000000;stroke-width:1.5;stroke-opacity:1"
       inkscape:connector-curvature="0" />
  </g>
</svg>
