<?xml version="1.0" encoding="UTF-8" standalone="no"?>
<svg
   xmlns:dc="http://purl.org/dc/elements/1.1/"
   xmlns:cc="http://creativecommons.org/ns#"
   xmlns:rdf="http://www.w3.org/1999/02/22-rdf-syntax-ns#"
   xmlns:svg="http://www.w3.org/2000/svg"
   xmlns="http://www.w3.org/2000/svg"
   xmlns:sodipodi="http://sodipodi.sourceforge.net/DTD/sodipodi-0.dtd"
   xmlns:inkscape="http://www.inkscape.org/namespaces/inkscape"
   version="1.1"
   id="Layer_1"
   x="0px"
   y="0px"
   viewBox="0 0 263.64248 399.70722"
   enable-background="new 0 0 1121.754 1662.986"
   xml:space="preserve"
   sodipodi:docname="Cartoon-Penguin.svg"
   width="263.64249"
   height="399.70721"
   inkscape:version="0.92.4 (5da689c313, 2019-01-14)"><metadata
   id="metadata55"><rdf:RDF><cc:Work
       rdf:about=""><dc:format>image/svg+xml</dc:format><dc:type
         rdf:resource="http://purl.org/dc/dcmitype/StillImage" /><dc:title></dc:title></cc:Work></rdf:RDF></metadata><defs
   id="defs53">
	
	
	
	
	
	
	
	
	
	
	
	
	
	
	
	
	
	
	
	
	
	
	
</defs><sodipodi:namedview
   pagecolor="#ffffff"
   bordercolor="#666666"
   borderopacity="1"
   objecttolerance="10"
   gridtolerance="10"
   guidetolerance="10"
   inkscape:pageopacity="0"
   inkscape:pageshadow="2"
   inkscape:window-width="1920"
   inkscape:window-height="1017"
   id="namedview51"
   showgrid="false"
   fit-margin-top="0"
   fit-margin-left="0"
   fit-margin-right="0"
   fit-margin-bottom="0"
   inkscape:zoom="0.80278345"
   inkscape:cx="131.82914"
   inkscape:cy="474.93398"
   inkscape:window-x="-8"
   inkscape:window-y="-8"
   inkscape:window-maximized="1"
   inkscape:current-layer="Layer_1" />
<path
   style="stroke:#000000;stroke-width:0.24966066"
   inkscape:connector-curvature="0"
   id="path2"
   d="m 129.62467,0.43451797 c 5.13003,-0.4626 10.3714,-0.527 15.41579,0.65770003 7.41343,1.6964 14.22267,5.3914 20.3124,9.8703 6.89288,5.0786 12.97835,11.1683 18.53455,17.6605 9.62168,11.2946 17.71617,23.8081 24.96258,36.7306 8.98778,16.1205 16.62814,32.9671 23.30482,50.165002 6.48369,16.746 12.04438,33.8498 16.70305,51.1912 5.14925,19.2136 9.20823,38.7311 11.81294,58.4523 2.50185,19.3227 3.72269,38.8984 2.13335,58.3497 -0.11784,1.5916 -0.45838,3.3757 -1.78632,4.4232 -1.36864,1.0795 -3.26856,0.9125 -4.83868,0.4285 -2.70956,-0.8654 -5.10231,-2.4954 -7.25913,-4.3162 -4.35258,-3.7184 -7.95094,-8.4031 -10.07156,-13.745 -0.15629,-0.3129 -0.52479,-0.4627 -0.65761,-0.7905 -8.41381,-15.5571 -16.83811,-31.1144 -24.54488,-47.0378 -7.80739,-16.1932 -15.04306,-32.725 -20.36382,-49.9186 -2.21699,-7.2699 -4.12964,-14.6534 -5.25636,-22.1759 -0.91251,0.1243 -1.82277,0.2614 -2.72879,0.4134 1.52942,10.1702 4.39527,20.0917 7.69404,29.8163 5.86902,17.0223 13.34661,33.4383 21.35123,49.5504 4.0847,8.1931 8.31944,16.3133 12.64406,24.3843 3.71421,6.9915 7.544,13.9228 11.23898,20.9228 0.002,1.8036 -0.3685,3.6029 -0.60618,5.3935 -1.9084,11.8578 -6.16462,23.2403 -11.70384,33.8624 -0.61891,1.2209 -1.36864,2.3818 -1.91714,3.6393 -1.77559,8.6792 -4.69512,17.078 -7.9145,25.3161 -3.60285,9.1076 -7.71102,18.014 -12.31002,26.6613 -3.7826,7.0234 -7.84384,13.9378 -12.75766,20.2395 -2.11637,2.6389 -4.36531,5.2371 -7.13929,7.2099 -1.45652,1.0046 -3.14647,1.8677 -4.965,1.7886 -2.0969,-0.1286 -3.98184,-1.2101 -5.6633,-2.3925 -3.27505,-2.4012 -5.98262,-5.4706 -8.52517,-8.6108 -2.78446,-3.5042 -5.35921,-7.1755 -7.73474,-10.9691 -4.58177,1.4737 -9.27913,2.5982 -14.05789,3.1937 -12.69125,1.5164 -25.753,-0.4799 -37.48879,-5.5113 -0.19923,2.7952 -0.50557,5.6376 -1.56787,8.2573 -0.58046,1.3624 -1.44804,2.7482 -2.85737,3.3672 -1.045327,0.4756 -2.257677,0.3405 -3.296517,-0.086 -9.41196,-3.8555 -19.20714,-7.0664 -29.36858,-8.1267 -4.82594,-0.529 -9.68808,-0.4304 -14.53325,-0.2806 -4.75953,0.1351 -9.62616,-0.197 -14.10932,-1.9234 -1.88918,-0.7647 -3.93041,-1.4608 -5.33575,-3.0117 -1.46725,-1.5915 -2.02849,-3.8213 -1.9878,-5.9396 -0.0449,-2.4976 0.49683,-5.0037 0.0514,-7.4861 -0.32131,-2.202 -1.55938,-4.1748 -3.14647,-5.6913 -0.61042,-0.5954 -1.37288,-1.116 -1.63653,-1.9685 -0.42417,-1.0304 -0.14355,-2.3049 0.72827,-3.0139 1.23581,-1.0281 2.78022,-1.5722 4.25821,-2.1549 4.46817,-1.6193 9.09489,-2.7567 13.72584,-3.8148 5.80261,-1.2807 11.64368,-2.3967 17.53217,-3.2109 -2.3518,-3.4186 -4.69312,-6.8521 -6.80725,-10.4251 -9.25766,-15.5079 -15.93634,-32.5023 -20.20104,-50.0344 -3.70571,-15.48 -5.59065,-31.4977 -4.40826,-47.4084 0.85459,-13.8329 1.97707,-27.6506 3.42285,-41.4344 1.5444,-14.4713 3.39289,-28.9167 5.82608,-43.2679 -4.90733,17.3971 -8.33217,35.2011 -10.49773,53.1445 -0.88904,7.3083 -1.59159,14.6383 -2.13135,21.9809 -0.16503,1.6684 -0.18001,3.3522 -0.40271,5.0164 -6.08972,1.9321 -12.36569,3.6028 -18.7959505,3.6628 -2.43768,-0.062 -4.99521,-0.2742 -7.15003,-1.5207 -1.54215,-0.8868 -2.73952999,-2.549 -2.61968999,-4.3868 0.15629,-3.0224 0.98965999,-5.9527 1.78631999,-8.855 2.16781,-7.4284 4.86439,-14.6875 7.62963,-21.9102 6.4260205,-16.5318 13.4924105,-32.8086 20.9143305,-48.9163 5.84106,-12.5434 11.8409,-25.0247 18.54953,-37.1312 0.43267,-0.8569 1.06031,-1.6301 1.27452,-2.581 2.37752,-9.358302 5.08084,-18.635202 8.23806,-27.757802 3.75714,-10.7913 8.11821,-21.3984 13.52861,-31.4742 5.65481,-10.5 12.43834,-20.5244 21.08134,-28.8074 6.34014,-6.0702 13.747317,-11.1296 21.985367,-14.2399 4.65492,-1.7758 9.54927,-2.91320003 14.50379,-3.42310003 m 21.1862,19.86060003 c -3.48277,0.4756 -6.80924,1.9555 -9.53828,4.1618 -3.57065,2.8509 -6.12593,6.8971 -7.31906,11.2969 -1.73938,6.3102 -0.73899,13.4153 2.95374,18.8516 -0.19499,-0.8311 -0.54826,-1.6173 -0.72402,-2.4526 -1.55713,-6.3017 0.0107,-13.4238 4.53883,-18.1661 2.73753,-2.9153 6.55235,-4.8517 10.5599,-5.1193 3.26656,-0.2399 6.64447,0.5183 9.41396,2.2899 -2.21475,-0.4734 -4.54732,0.1455 -6.38308,1.4265 -4.92231,-0.696 -9.95597,1.8101 -12.87325,5.7427 -2.54904,3.365 -3.66053,7.784 -2.99443,11.9523 0.46911,3.0009 1.83575,5.8733 3.95837,8.0538 2.70307,2.8531 6.64871,4.5281 10.58786,4.3354 0.75397,-0.028 1.5444,-0.01 2.2427,-0.3471 0.5163,0.056 1.02161,-0.1907 1.51644,-0.3213 4.85165,-1.5636 8.61504,-5.8283 9.85311,-10.7356 0.73674,-2.6881 0.53552,-5.5243 0.028,-8.2296 0.69605,-1.3816 1.03234,-2.9667 0.8461,-4.5089 0.35127,0.4327 0.51405,0.9767 0.74124,1.48 2.43544,5.8368 2.01351,12.8368 -1.32595,18.239 1.24032,-0.9832 2.1698,-2.3069 3.07158,-3.5941 4.57104,-6.7643 5.03141,-16.0093 1.27651,-23.2427 -1.92788,-3.7891 -4.98872,-7.0192 -8.7521,-9.02 -3.54294,-1.8957 -7.69404,-2.6731 -11.67813,-2.0926 m -60.913457,5.9074 c -3.87048,3.3672 -6.15813,8.2508 -7.06414,13.2395 -0.86758,4.9907 -0.46912,10.2344 1.3559,14.9724 0.18625,0.5141 0.35777,1.0431 0.67034,1.4972 -0.0749,-0.8011 -0.32556,-1.5721 -0.42617,-2.369 -0.54825,-3.7249 -0.29335,-7.5889 0.89753,-11.1683 0.99814,-3.0117 2.67112,-5.8518 5.07435,-7.9552 1.96633,-1.7286 4.47892,-2.9088 7.11783,-3.0181 3.487007,-0.212 6.948547,1.3966 9.283377,3.9433 -1.92988,-0.6553 -4.10192,-0.7796 -6.01033,0.011 -0.57622,-0.24 -1.199617,-0.3084 -1.816277,-0.3321 -2.01776,-0.1113 -4.03552,0.5313 -5.70625,1.643 -2.08416,1.4116 -3.66501,3.4743 -4.73156,5.7362 -2.00927,4.3589 -2.26193,9.4784 -0.77545,14.0322 0.99814,2.988 2.85961,5.8069 5.59914,7.4541 1.82926,1.0753 4.06323,1.6665 6.16687,1.1889 2.021997,-0.2357 3.864247,-1.3302 5.344227,-2.6881 2.89157,-2.7395 4.46818,-6.6487 4.8559,-10.5664 0.0622,-0.8952 0.22495,-1.825 -0.0365,-2.701 0.39622,-0.8826 1.15893,-1.5402 1.52718,-2.442 0.32555,-0.542 0.31906,-1.2273 0.7003,-1.7306 1.0668,5.1492 0.71328,10.7142 -1.66225,15.463 1.68572,-2.0048 2.88084,-4.3953 3.74841,-6.8587 1.75861,-5.1515 1.95135,-10.8128 0.60193,-16.0842 -0.99614,-3.8447 -2.84887,-7.5332 -5.67404,-10.3586 -2.58099,-2.6562 -6.17959,-4.451 -9.925997,-4.4318 -3.35045,-0.054 -6.60403,1.356 -9.11437,3.5235 m 19.425597,39.1575 c -1.59583,0.4776 -3.20015,1.0581 -4.53459,2.0777 -0.73475,0.5827 -1.41807,1.3881 -1.42007,2.3755 -0.18,4.9116 0.83762,9.7568 1.89143,14.5248 1.06231,4.3483 2.34556,8.658 4.16609,12.7512 1.51444,3.339402 3.31799,6.659402 6.04678,9.172002 1.842,1.6922 4.33311,2.9065 6.88864,2.5855 2.25119,-0.3406 4.13613,-1.7714 5.74269,-3.3008 2.97521,-2.9472 5.14925,-6.575802 7.07913,-10.262302 2.13984,-4.2624 3.862,-8.7371 5.0766,-13.3508 0.56548,-2.2727 1.15019,-4.5753 1.24456,-6.9251 0.25915,-0.7755 0.18,-1.6086 0.20996,-2.414 -0.0407,-1.0196 0.1136,-2.0842 -0.23992,-3.0608 -0.40495,-1.7499 -2.22123,-2.6517 -3.72269,-3.3373 -5.01019,-1.979 -10.485,-2.3498 -15.82274,-2.3198 -4.23949,-0.028 -8.51044,0.3468 -12.60587,1.4842 M 94.740293,170.64662 c -8.38161,1.0109 -16.42892,4.3825 -23.14629,9.4803 -5.36346,4.0248 -9.92151,9.0692 -13.63372,14.6446 -6.52438,9.8317 -10.52344,21.2012 -12.42985,32.8065 -1.90641,11.573 -1.74987,23.4481 0.1478,35.0106 2.87034,17.455 9.68184,34.3937 20.52235,48.4387 5.06362,6.5244 11.00979,12.4041 17.81479,17.1057 6.89937,4.7615 14.71974,8.3087 22.998487,9.791 9.60669,1.7651 19.74691,0.527 28.60812,-3.6006 -0.29785,-0.7947 -0.56973,-1.5936 -0.86108,-2.3863 -1.34717,-3.9177 -2.55528,-7.8845 -3.48701,-11.9223 -0.89753,-4.0782 -1.6258,-8.283 -1.12672,-12.4663 0.29984,-2.0862 1.06879,-4.3676 2.97296,-5.5113 1.26378,-0.7969 2.80593,-0.7367 4.23474,-0.6104 3.21089,-0.045 6.50091,-0.2269 9.58323,-1.1544 2.84662,-0.5633 5.54546,-1.825 7.9402,-3.4551 3.47428,-2.384 6.00609,-5.8583 8.11797,-9.4504 0.79891,-1.3881 1.7244,-2.7118 2.44393,-4.1361 1.63428,-2.3326 3.36293,-4.7296 5.88824,-6.1711 0.28711,-0.951 0.23993,-1.9791 0.37699,-2.9602 1.19513,-13.291 -0.16278,-26.7726 -3.67775,-39.6329 -4.4532,-16.1955 -12.47479,-31.5791 -24.15717,-43.7371 -6.78153,-7.0022 -14.82884,-12.9074 -23.9045,-16.5659 -7.94221,-3.2234 -16.69631,-4.6223 -25.225717,-3.517 m 81.690717,108.5682 c -1.28301,0.1842 -2.54479,0.5739 -3.67351,1.2146 -2.29837,1.2915 -3.87473,3.4915 -5.25635,5.674 -2.18703,3.4785 -4.09344,7.1843 -6.8844,10.2386 -2.42895,2.7545 -5.50052,4.9415 -8.91064,6.3082 -4.2647,1.7693 -8.91912,2.3198 -13.49865,2.4247 -1.35166,0.039 -2.91529,-0.394 -4.04201,0.5889 -1.22957,1.1118 -1.44803,2.9068 -1.4695,4.4767 -0.15004,4.3376 0.85259,8.6001 1.96209,12.7619 2.21274,7.9897 5.23938,15.7306 8.60655,23.3003 3.59861,8.0988 7.65759,15.9921 12.11728,23.6496 4.10617,6.863 8.45226,13.6487 13.81997,19.6056 2.2362,2.3563 4.58376,4.7938 7.63412,6.0748 1.22084,0.5527 2.66687,0.5804 3.85775,-0.073 3.03313,-1.51 5.31204,-4.1234 7.47559,-6.6595 2.87659,-3.485 5.38069,-7.2591 7.75396,-11.0996 4.33112,-7.0687 8.15018,-14.4391 11.65866,-21.949 4.03327,-8.6707 7.63412,-17.5513 10.5941,-26.6482 1.49946,-4.7765 2.86386,-9.6132 3.65203,-14.5632 0.40271,-2.2278 0.28062,-4.4982 0.28911,-6.7494 -0.0364,-1.0261 -0.2207,-2.2534 -1.15892,-2.8508 -1.02811,-0.5378 -2.19327,-0.058 -3.28154,-0.1049 -4.06773,-0.088 -8.18238,-0.557 -12.02291,-1.9598 -3.71196,-1.3387 -7.07713,-3.6413 -9.62816,-6.6552 -2.59822,-2.9645 -4.40177,-6.4945 -6.40879,-9.8574 -1.3986,-2.2899 -3.02664,-4.5987 -5.4491,-5.8925 -2.3518,-1.2705 -5.11505,-1.5189 -7.73673,-1.2555 m -117.819357,65.5316 c -7.6189,1.343 -15.21882,2.9111 -22.61077,5.2157 -1.68147,0.5463 -3.36717,1.1245 -4.9308,1.9621 0.35552,0.5013 0.76671,0.964 1.15243,1.4458 2.04997,2.611 3.05011,5.9481 3.03937,9.2492 0.0836,2.2577 -0.42192,4.5088 -0.15204,6.7665 0.18001,1.1739 1.18239,1.9813 2.19776,2.4632 3.72918,1.8228 7.85882,2.8339 12.01218,2.8811 4.06972,0.075 8.13744,-0.1049 12.20715,-0.049 1.76511,-0.036 3.54069,0.2184 5.2993,0 -0.12433,0.079 -0.24641,0.165 -0.36625,0.2571 8.55712,0.6384 16.87881,2.9667 24.94335,5.8046 2.33258,0.7947 4.3783,2.3648 6.88014,2.6539 0.64263,0.2807 1.44804,0.2334 1.992047,-0.2377 1.01112,-0.8288 1.38362,-2.1483 1.75636,-3.3457 0.42193,-1.7049 0.63414,-3.4615 0.72177,-5.2136 0.16927,-0.6254 -0.58471,-0.7475 -0.98092,-0.9789 -0.66609,-0.3748 -1.3559,-0.7048 -2.056197,-1.0047 -1.97906,-1.1586 -4.02903,-2.1997 -5.93968,-3.4742 -3.64779,-2.2854 -7.1006,-4.8687 -10.39712,-7.6319 -0.8074,-0.7218 -1.62154,-1.4373 -2.46115,-2.1184 -2.78247,-2.564 -5.42787,-5.2693 -8.01536,-8.0303 -0.37699,-0.4884 -0.7732,-0.964 -1.22533,-1.3794 -1.78632,-2.0819 -3.49999,-4.2218 -5.2244,-6.3554 -2.64116,0.1371 -5.22864,0.7433 -7.84184,1.1202 z" /><path
   style="fill:#ffffff;stroke:#ffffff;stroke-width:0.24966066"
   inkscape:connector-curvature="0"
   id="path4"
   d="m 150.81087,20.295118 c 3.98409,-0.5805 8.13519,0.1969 11.67813,2.0926 3.76338,2.0005 6.82422,5.2306 8.7521,9.02 3.7549,7.2334 3.29428,16.4781 -1.27651,23.2427 -0.90178,1.2872 -1.83151,2.6109 -3.07158,3.5941 3.33946,-5.4022 3.76139,-12.4022 1.32595,-18.239 -0.22694,-0.5033 -0.38972,-1.0473 -0.74124,-1.48 0.18624,1.5422 -0.15005,3.1273 -0.8461,4.5089 -1.01113,2.052 -2.943,3.5706 -5.10432,4.2605 -2.39249,0.6169 -5.06137,0.2399 -7.07488,-1.2296 -2.34331,-1.6258 -3.70571,-4.5131 -3.4915,-7.3555 0.13057,-2.4312 1.48448,-4.6245 3.35219,-6.1262 1.83575,-1.281 4.16833,-1.8999 6.38308,-1.4266 -2.76949,-1.7713 -6.1474,-2.5295 -9.41396,-2.2898 -4.00755,0.2676 -7.82237,2.204 -10.5599,5.1192 -4.52809,4.7423 -6.09596,11.8644 -4.53883,18.1661 0.17576,0.8354 0.52903,1.6215 0.72402,2.4527 -3.69273,-5.4364 -4.69312,-12.5412 -2.95374,-18.8517 1.19313,-4.3995 3.74841,-8.4457 7.31906,-11.2969 2.72854,-2.206 6.05526,-3.6862 9.53803,-4.1615 z" /><path
   style="fill:#ffffff;stroke:#ffffff;stroke-width:0.24966066"
   inkscape:connector-curvature="0"
   id="path6"
   d="m 89.897413,26.202518 c 2.51034,-2.1678 5.76417,-3.5771 9.11412,-3.5234 3.746397,-0.019 7.344757,1.7755 9.925997,4.4317 2.82517,2.8251 4.67815,6.5136 5.67404,10.3587 1.34942,5.2713 1.15668,10.9326 -0.60193,16.0841 -0.86757,2.4631 -2.0627,4.8537 -3.7484,6.8587 2.37552,-4.7488 2.72879,-10.3138 1.66224,-15.463 -0.38124,0.5033 -0.37474,1.1889 -0.7003,1.7306 -0.3685,0.9018 -1.13096,1.5594 -1.52718,2.442 -0.88679,0.5225 -1.7244,1.1309 -2.6454,1.5936 -2.25968,0.9659 -4.93729,0.8995 -7.115577,-0.2527 -3.15296,-1.5809 -5.0057,-5.2993 -4.37181,-8.7713 0.45613,-2.5276 2.09266,-4.8474 4.42973,-5.9632 0.265637,-0.1285 0.533277,-0.2526 0.803157,-0.3727 1.90841,-0.7904 4.08045,-0.6661 6.01033,-0.011 -2.33483,-2.5468 -5.79612,-4.1554 -9.283377,-3.9434 -2.63891,0.1093 -5.1515,1.2895 -7.11783,3.0181 -2.40323,2.1034 -4.07621,4.9438 -5.07435,7.9552 -1.19088,3.5791 -1.44578,7.4434 -0.89753,11.1683 0.10061,0.7969 0.35127,1.5679 0.42617,2.3691 -0.31282,-0.4542 -0.48409,-0.9832 -0.67034,-1.4973 -1.82502,-4.738 -2.22348,-9.9816 -1.3559,-14.9724 0.90577,-4.9889 3.19341,-9.8728 7.06414,-13.24 z" /><path
   style="fill:#01fefe;stroke:#01fefe;stroke-width:0.24966066"
   inkscape:connector-curvature="0"
   id="path8"
   d="m 141.43961,38.326018 c 2.91728,-3.9326 7.95094,-6.4387 12.87325,-5.7426 -1.86771,1.5014 -3.22162,3.6949 -3.35219,6.1261 -2.66238,0.7969 -4.66941,3.0137 -5.78763,5.4898 -1.64078,3.6563 -1.76061,7.9682 -0.34903,11.7188 0.92324,2.4527 2.60246,4.7488 5.01019,5.9055 1.56587,0.7819 3.39713,0.7732 5.0721,0.3962 0.0814,0.026 0.24642,0.075 0.32781,0.1006 -0.6983,0.3386 -1.48873,0.3191 -2.2427,0.3471 -3.93915,0.1927 -7.88454,-1.4823 -10.58786,-4.3354 -2.12262,-2.1805 -3.48926,-5.0529 -3.95837,-8.0538 -0.6661,-4.1683 0.44564,-8.5871 2.99443,-11.9523 z" /><path
   style="fill:#02fefd;stroke:#02fefd;stroke-width:0.24966066"
   inkscape:connector-curvature="0"
   id="path10"
   d="m 93.273083,36.666118 c 1.67072,-1.1118 3.68848,-1.7544 5.70624,-1.6431 0.36426,0.1908 0.6983,0.4392 1.01312,0.7048 -2.33682,1.116 -3.97335,3.4359 -4.42973,5.9632 -2.27266,1.4031 -3.6413,3.8877 -4.3718,6.3895 -1.12023,4.0375 -0.80541,8.5614 1.24655,12.2564 1.16317,2.1014 3.08231,3.8555 5.47057,4.3933 0.52703,0.1712 1.07104,0.2913 1.62354,0.347 -2.10339,0.4776 -4.33761,-0.1136 -6.16687,-1.1889 -2.73953,-1.6473 -4.601,-4.4659 -5.59914,-7.4541 -1.48648,-4.5538 -1.23382,-9.6731 0.77545,-14.0322 1.06705,-2.2617 2.6479,-4.3244 4.73207,-5.7359 z" /><path
   style="fill:#59dddd;stroke:#59dddd;stroke-width:0.24966066"
   inkscape:connector-curvature="0"
   id="path12"
   d="m 98.979323,35.023318 c 0.61691,0.023 1.240307,0.092 1.816277,0.332 -0.26988,0.1199 -0.53777,0.2442 -0.803157,0.3728 -0.31482,-0.2659 -0.64911,-0.5143 -1.01312,-0.7048 z" /><path
   style="stroke:#000000;stroke-width:0.24966066"
   inkscape:connector-curvature="0"
   id="path14"
   d="m 145.17328,44.199318 c 1.11823,-2.4761 3.12525,-4.6931 5.78764,-5.4898 -0.21421,2.8424 1.14819,5.7297 3.4915,7.3555 2.01351,1.4695 4.68239,1.8465 7.07488,1.2296 0.557,3.3714 0.27413,6.957 -1.32594,10.0201 -1.09452,2.2063 -2.96023,4.057 -5.29506,4.9051 -1.67497,0.377 -3.50648,0.3855 -5.0721,-0.3962 -2.40748,-1.1567 -4.08695,-3.4528 -5.01019,-5.9055 -1.41158,-3.7506 -1.2915,-8.0623 0.34927,-11.7188 z" /><path
   style="stroke:#000000;stroke-width:0.24966066"
   inkscape:connector-curvature="0"
   id="path16"
   d="m 91.191153,48.080818 c 0.73051,-2.5019 2.09915,-4.9865 4.37181,-6.3896 -0.63413,3.4721 1.21885,7.1907 4.37181,8.7713 2.178287,1.1525 4.855897,1.2189 7.115577,0.2527 0.31907,4.0782 -0.44564,8.5252 -3.27929,11.6394 -1.45003,1.6558 -3.65004,2.6217 -5.862527,2.3756 -2.38826,-0.5376 -4.3074,-2.2919 -5.47057,-4.3933 -2.05221,-3.6947 -2.36728,-8.2186 -1.24681,-12.2561 z" /><path
   style="fill:#02fefe;stroke:#02fefe;stroke-width:0.24966066"
   inkscape:connector-curvature="0"
   id="path18"
   d="m 161.52706,47.294618 c 2.16131,-0.6898 4.09343,-2.2085 5.10431,-4.2605 0.50756,2.7054 0.70903,5.5413 -0.028,8.2296 -1.23807,4.9073 -5.00146,9.172 -9.85311,10.7357 -0.49483,0.1305 -1.00039,0.377 -1.51644,0.3213 -0.0814,-0.026 -0.24641,-0.075 -0.32781,-0.1006 2.33483,-0.8484 4.20054,-2.6989 5.29506,-4.9051 1.60032,-3.0634 1.88294,-6.649 1.32595,-10.0204 z" /><path
   style="fill:#04fcfc;stroke:#04fcfc;stroke-width:0.24966066"
   inkscape:connector-curvature="0"
   id="path20"
   d="m 107.05035,50.715218 c 0.921,-0.4626 1.75861,-1.071 2.6454,-1.5936 0.2614,0.8761 0.0986,1.8058 0.0365,2.7011 -0.38772,3.9177 -1.96408,7.8269 -4.85589,10.5664 -1.47999,1.3579 -3.32224,2.4527 -5.344237,2.6881 -0.55275,-0.056 -1.09676,-0.1758 -1.62354,-0.347 2.212737,0.2464 4.412497,-0.7198 5.862527,-2.3756 2.83365,-3.1142 3.59836,-7.5609 3.27929,-11.6394 z" /><path
   style="fill:#ff6600;stroke:#ff6600;stroke-width:0.24966066"
   inkscape:connector-curvature="0"
   id="path22"
   d="m 109.32301,65.360118 c 4.09543,-1.1375 8.36663,-1.5122 12.60562,-1.4845 5.33774,-0.03 10.8128,0.3405 15.82274,2.3198 1.50146,0.6853 3.31799,1.5871 3.72269,3.3372 -0.11784,1.8208 -0.0921,3.6543 0.03,5.4748 -0.0944,2.3498 -0.67908,4.6525 -1.24456,6.9251 -1.2146,4.6138 -2.93675,9.0884 -5.0766,13.3509 -1.92987,3.6862 -4.10392,7.314802 -7.07913,10.262302 -1.60656,1.5294 -3.4915,2.9602 -5.74269,3.3007 -2.55528,0.3214 -5.04639,-0.8932 -6.88864,-2.5854 -2.72879,-2.5126 -4.53234,-5.8326 -6.04678,-9.172102 -1.82077,-4.0934 -3.10378,-8.4031 -4.16609,-12.7511 -1.05381,-4.7681 -2.07118,-9.6132 -1.89143,-14.5248 0.002,-0.9874 0.68532,-1.7928 1.42007,-2.3755 1.33469,-1.0194 2.93901,-1.5998 4.53484,-2.0774 m 29.54409,5.115 c -0.26564,0.8503 -0.62539,1.6685 -0.88679,2.5211 -1.06231,3.6328 -2.40124,7.1755 -3.6071,10.7613 -1.53142,3.9434 -2.93226,7.964 -5.05288,11.6417 -0.58895,1.0818 -1.53791,1.8915 -2.41397,2.7333 -1.91489,1.5551 -4.23899,2.495402 -6.53936,3.326502 -0.87606,0.3555 -1.83575,0.5527 -2.60471,1.1309 1.24231,0.5291 2.63467,0.3663 3.94988,0.4392 2.66463,0.1885 4.89435,-1.6557 6.58006,-3.510702 2.06269,-2.4739 3.7549,-5.2349 5.13003,-8.1437 2.1291,-4.5066 3.83403,-9.219 4.99296,-14.0684 0.63838,-2.746 1.1759,-5.5454 1.2488,-8.3686 -0.48209,0.3722 -0.60418,0.9934 -0.79692,1.5374 z" /><path
   style="fill:#e84f08;stroke:#e84f08;stroke-width:0.24966066"
   inkscape:connector-curvature="0"
   id="path24"
   d="m 138.8671,70.475118 c 0.19274,-0.544 0.31483,-1.1652 0.79692,-1.5379 -0.0729,2.8232 -0.61042,5.6226 -1.2488,8.3686 -1.15893,4.8494 -2.86386,9.5618 -4.99296,14.0684 -1.37513,2.9088 -3.06734,5.6698 -5.13003,8.1437 -1.68571,1.855002 -3.91543,3.699202 -6.58006,3.510702 -1.31521,-0.073 -2.70757,0.09 -3.94988,-0.4392 0.76896,-0.5782 1.72865,-0.7754 2.60471,-1.1309 2.30037,-0.8311 4.62447,-1.771402 6.53936,-3.326502 0.87606,-0.8418 1.82502,-1.6515 2.41397,-2.7333 2.12062,-3.6777 3.52146,-7.6983 5.05288,-11.6417 1.20586,-3.5856 2.54479,-7.1285 3.6071,-10.7613 0.2614,-0.8521 0.62115,-1.6703 0.88679,-2.5206 z" /><path
   style="fill:#e27220;stroke:#e27220;stroke-width:0.24966066"
   inkscape:connector-curvature="0"
   id="path26"
   d="m 141.47406,69.532618 c 0.35352,0.9767 0.19923,2.0413 0.23993,3.0609 -0.03,0.8054 0.0492,1.6385 -0.20997,2.4139 -0.12208,-1.8205 -0.1478,-3.6542 -0.03,-5.4748 z" /><path
   style="fill:#ffffff;stroke:#ffffff;stroke-width:0.24966066"
   inkscape:connector-curvature="0"
   id="path28"
   d="m 94.740333,170.64672 c 8.529407,-1.1053 17.283507,0.2933 25.225957,3.5172 9.07567,3.6585 17.12298,9.564 23.90451,16.566 11.68238,12.1577 19.70397,27.5416 24.15717,43.7371 3.51497,12.8605 4.87288,26.3419 3.67775,39.6328 -0.13706,0.981 -0.0899,2.0093 -0.37699,2.9603 -2.52531,1.4415 -4.25396,3.8385 -5.88824,6.1711 0.86332,-4.9243 1.68995,-9.8723 1.94061,-14.876 0.61916,-9.5383 -0.26139,-19.1772 -2.66887,-28.4284 -3.65429,-14.1927 -10.36716,-27.7428 -20.24798,-38.637 -2.36254,-2.5598 -4.8579,-5.0037 -7.55049,-7.2142 0.72826,1.6964 1.7671,3.2386 2.57899,4.8966 4.20903,7.9125 7.80315,16.1525 10.70121,24.6328 2.66887,7.9424 4.77226,16.1056 5.74469,24.4378 1.09676,9.5959 0.93398,19.3656 -0.83961,28.8737 -1.25304,6.5309 -3.25782,12.9312 -6.1067,18.9458 -0.64462,1.4887 -1.57011,2.8508 -2.0542,4.4102 -3.08232,0.9275 -6.37234,1.1095 -9.58323,1.1544 -1.42881,-0.1263 -2.97096,-0.1862 -4.23474,0.6105 -1.90417,1.1437 -2.67312,3.4251 -2.97296,5.5112 -0.49908,4.1833 0.22919,8.3881 1.12672,12.4663 -5.3742,5.1515 -11.4789,9.4846 -17.82353,13.3596 -1.04108,0.6576 -2.09915,1.296 -3.09504,2.022 -0.31707,0.18 -0.42842,0.5226 -0.51405,0.8588 1.96408,0.1563 3.90694,-0.2399 5.85179,-0.4563 3.77837,-0.4926 7.54824,-1.0346 11.32686,-1.5252 2.69459,-0.3171 5.30354,-1.1632 7.74098,-2.3368 0.29135,0.7924 0.56323,1.5916 0.86108,2.3862 -8.86146,4.1277 -19.00143,5.3657 -28.60812,3.6006 -8.278747,-1.4822 -16.099117,-5.0294 -22.998487,-9.7909 -6.805,-4.7016 -12.75117,-10.5814 -17.81479,-17.1058 -10.84051,-14.0449 -17.65201,-30.9836 -20.52235,-48.4386 -1.89767,-11.5626 -2.05421,-23.4377 -0.1478,-35.0107 1.90641,-11.6052 5.90547,-22.9748 12.42985,-32.8064 3.71196,-5.5757 8.27026,-10.6198 13.63372,-14.6446 6.71737,-5.0976 14.76468,-8.469 23.14629,-9.4801 z" /><path
   style="fill:#cccccc;stroke:#cccccc;stroke-width:0.24966066"
   inkscape:connector-curvature="0"
   id="path30"
   d="m 136.91376,194.07562 c 2.69234,2.2105 5.18795,4.6544 7.55049,7.2142 9.88107,10.8939 16.59394,24.4443 20.24798,38.637 2.40748,9.2512 3.28803,18.8901 2.66887,28.4284 -0.25066,5.0037 -1.07729,9.9514 -1.94061,14.876 -0.71978,1.4243 -1.64502,2.7482 -2.44393,4.1361 -2.11188,3.5921 -4.64369,7.0664 -8.11797,9.4504 -2.39474,1.63 -5.09357,2.8916 -7.9402,3.4551 0.48409,-1.5594 1.40933,-2.9216 2.0542,-4.4103 2.84888,-6.0146 4.85366,-12.4149 6.1067,-18.9458 1.77359,-9.5083 1.93637,-19.2777 0.83961,-28.8737 -0.97243,-8.3324 -3.07582,-16.4953 -5.74469,-24.4378 -2.89806,-8.48 -6.49243,-16.7203 -10.70121,-24.6328 -0.81214,-1.6579 -1.85098,-3.2004 -2.57924,-4.8968 z" /><path
   style="fill:#ff6600;stroke:#ff6600;stroke-width:0.24966066"
   inkscape:connector-curvature="0"
   id="path32"
   d="m 176.43105,279.21492 c 2.62168,-0.2634 5.38493,-0.015 7.73673,1.2553 2.42246,1.2937 4.0505,3.6028 5.4491,5.8925 2.00702,3.3629 3.81057,6.8928 6.40879,9.8573 2.55103,3.0137 5.9162,5.3163 9.62816,6.6552 3.84053,1.4031 7.95544,1.8722 12.02291,1.9599 1.08802,0.047 2.25343,-0.4327 3.28154,0.1048 0.93822,0.5977 1.12247,1.825 1.15892,2.8509 -0.008,2.2512 0.1136,4.5216 -0.28911,6.7493 -0.78817,4.95 -2.15257,9.7867 -3.65203,14.5632 -2.96023,9.0969 -6.56083,17.9776 -10.5941,26.6483 -3.50848,7.5098 -7.32779,14.8803 -11.65866,21.9489 -2.37327,3.8406 -4.87737,7.6147 -7.75396,11.0997 -2.16331,2.536 -4.44246,5.1492 -7.47559,6.6594 -1.19088,0.6534 -2.63666,0.6254 -3.85775,0.073 -3.05011,-1.281 -5.39766,-3.7184 -7.63412,-6.0747 -5.36771,-5.9569 -9.7138,-12.7427 -13.81997,-19.6056 -4.45969,-7.6576 -8.51867,-15.5506 -12.11728,-23.6496 -3.36717,-7.5697 -6.39381,-15.3109 -8.60655,-23.3003 -1.1095,-4.1619 -2.11188,-8.4243 -1.96209,-12.762 0.0215,-1.5701 0.23993,-3.3651 1.4695,-4.4766 1.12672,-0.9832 2.69035,-0.5505 4.04201,-0.589 4.57953,-0.1048 9.23395,-0.6553 13.49865,-2.4247 3.41012,-1.3666 6.48169,-3.5537 8.91064,-6.3081 2.79096,-3.0544 4.69737,-6.7601 6.8844,-10.2386 1.38162,-2.1828 2.95798,-4.3826 5.25635,-5.6741 1.12872,-0.6401 2.3905,-1.0301 3.67351,-1.2143 m 10.61782,6.4966 c 0.17126,1.4094 0.7305,2.7353 1.00663,4.1255 0.70904,3.2193 1.0623,6.608 0.3278,9.853 -0.45837,1.6493 -1.101,3.3073 -2.26617,4.5945 -2.02849,2.4098 -5.08509,3.6306 -8.06878,4.3634 -5.23713,1.2038 -10.88346,1.3794 -15.97903,-0.5333 -2.15482,-0.7797 -4.17258,-1.8764 -6.32515,-2.6624 -1.9129,-0.8868 -4.08271,-1.0837 -6.15614,-0.8396 -0.23343,0.064 -0.8074,0.1563 -0.57621,0.5183 0.48833,0.8289 1.15443,1.5422 1.78632,2.2684 1.18015,1.1974 2.18902,2.5533 3.11227,3.9564 1.3579,2.0285 2.03498,4.5925 1.5102,7.0085 -0.39422,1.3794 -1.04109,2.7053 -1.97707,3.7978 -0.5118,0.6169 -1.17815,1.1075 -1.5786,1.8143 1.65799,-0.1907 3.24084,-0.7605 4.75953,-1.4243 3.94564,-1.7843 7.20121,-4.7101 10.97333,-6.7943 3.11452,-1.7136 6.66145,-2.7545 10.23859,-2.6239 3.37791,-0.062 6.7643,0.096 10.11225,0.5869 3.50848,0.5098 7.02346,1.5122 9.98593,3.5192 1.92563,1.4074 3.50224,3.365 4.20254,5.6676 0.63838,1.9621 0.65111,4.0547 0.53327,6.0959 -0.47984,4.4448 -2.01551,8.6815 -3.66277,12.8069 -1.89143,4.4682 -3.98408,8.8465 -6.03604,13.2395 -0.38124,0.6684 -0.59969,1.8765 -1.63653,1.6043 -4.16184,-0.5355 -8.72439,-0.3854 -12.34647,1.9791 -1.33668,0.9102 -2.65389,1.9299 -3.53844,3.3115 -2.05845,2.9472 -2.95598,6.5438 -3.1959,10.0908 -0.2207,5.28 0.59768,10.652 2.68809,15.5229 0.83961,1.7543 1.72216,3.652 3.45705,4.6931 1.02161,0.4711 2.19552,0.2015 3.20664,-0.1563 2.75451,-1.2745 4.95452,-3.4615 6.86492,-5.7704 4.75729,-5.717 8.36863,-12.2671 11.81944,-18.8217 1.0261,-1.9298 1.85922,-3.9561 2.89382,-5.8817 2.74177,-5.8049 5.21566,-11.7338 7.5782,-17.7035 2.95373,-7.8782 5.68901,-15.8549 7.62763,-24.05 0.63414,-3.2067 1.36439,-6.4345 1.25304,-9.7246 -0.0449,-1.1566 -0.03,-2.534 -0.94471,-3.3821 -0.739,-0.7562 -1.83576,-0.2185 -2.74177,-0.2934 -3.38016,-0.1585 -6.79427,-0.4518 -10.03312,-1.4865 -4.29691,-1.1951 -8.17813,-3.7806 -10.91341,-7.3063 -2.52332,-3.0351 -4.22601,-6.6272 -6.3339,-9.9409 -0.49632,-0.7096 -0.88404,-1.5362 -1.62728,-2.0226 z" /><path
   style="fill:#e84f09;stroke:#e84f09;stroke-width:0.24966066"
   inkscape:connector-curvature="0"
   id="path34"
   d="m 187.04887,285.71152 c 0.74324,0.4864 1.13096,1.313 1.62778,2.0221 2.10764,3.3137 3.81058,6.9058 6.3339,9.9409 2.73528,3.5257 6.6165,6.111 10.91341,7.3063 3.2386,1.0347 6.65296,1.328 10.03311,1.4865 0.90602,0.075 2.00278,-0.4626 2.74178,0.2934 0.91476,0.8481 0.89953,2.2255 0.94472,3.3821 0.11134,3.2901 -0.61891,6.5182 -1.25305,9.7246 -1.93862,8.1951 -4.6739,16.172 -7.62764,24.05 -2.36253,5.9697 -4.83667,11.8986 -7.57819,17.7035 -1.0346,1.9256 -1.86772,3.9518 -2.89382,5.8817 -3.45081,6.5544 -7.06215,13.1047 -11.81944,18.8217 -1.91065,2.3091 -4.11041,4.4961 -6.86492,5.7704 -1.01087,0.3578 -2.18478,0.6277 -3.20664,0.1563 -1.73489,-1.0411 -2.61744,-2.9388 -3.45705,-4.6931 -2.09066,-4.8709 -2.9088,-10.2429 -2.6881,-15.5229 0.23993,-3.5472 1.13746,-7.1436 3.19591,-10.0908 0.88455,-1.3816 2.20201,-2.4013 3.53844,-3.3115 3.62208,-2.3648 8.18438,-2.5146 12.34647,-1.9791 1.03659,0.2722 1.25529,-0.9359 1.63653,-1.6043 2.05196,-4.3933 4.14461,-8.7713 6.03604,-13.2395 1.64726,-4.1254 3.18293,-8.3624 3.66277,-12.8069 0.11784,-2.0412 0.10486,-4.1338 -0.53327,-6.0959 -0.70055,-2.3026 -2.27691,-4.2605 -4.20254,-5.6676 -2.96247,-2.007 -6.47745,-3.0094 -9.98593,-3.5192 -3.34795,-0.4905 -6.73434,-0.6491 -10.11225,-0.5869 -3.57714,-0.1306 -7.12432,0.9103 -10.23859,2.6239 -3.77212,2.0842 -7.02795,5.0102 -10.97333,6.7943 -1.51869,0.6641 -3.10154,1.2338 -4.75953,1.4243 0.40045,-0.7068 1.0668,-1.1974 1.5786,-1.8143 0.93598,-1.0925 1.58285,-2.4182 1.97706,-3.7978 0.52479,-2.4163 -0.15204,-4.9803 -1.51019,-7.0085 -0.92325,-1.4031 -1.93213,-2.759 -3.11227,-3.9564 -0.63189,-0.726 -1.29799,-1.4393 -1.78632,-2.2684 -0.23144,-0.362 0.34278,-0.4541 0.57621,-0.5183 2.07343,-0.2442 4.24324,-0.047 6.15613,0.8396 2.15258,0.7862 4.17034,1.883 6.32516,2.6624 5.09582,1.9127 10.7419,1.7371 15.97903,0.5333 2.98369,-0.7325 6.04029,-1.9536 8.06878,-4.3634 1.16517,-1.2872 1.80779,-2.9452 2.26617,-4.5945 0.73475,-3.245 0.38123,-6.6337 -0.3278,-9.853 -0.27688,-1.3897 -0.83587,-2.7154 -1.00713,-4.125 z" /><path
   style="fill:#cccccc;stroke:#cccccc;stroke-width:0.24966066"
   inkscape:connector-curvature="0"
   id="path36"
   d="m 131.27393,320.01542 c 0.93173,4.0375 2.13984,8.0046 3.48701,11.9223 -2.43744,1.1739 -5.04639,2.0198 -7.74098,2.3369 -3.77837,0.4905 -7.54824,1.0323 -11.32686,1.5251 -1.94485,0.2165 -3.88771,0.6127 -5.85179,0.4564 0.0856,-0.3363 0.19698,-0.6791 0.51405,-0.8588 0.99614,-0.726 2.05421,-1.3644 3.09504,-2.022 6.34463,-3.8753 12.44933,-8.2084 17.82353,-13.3599 z" /><path
   style="fill:#ff6600;stroke:#ff6600;stroke-width:0.24966066"
   inkscape:connector-curvature="0"
   id="path38"
   d="m 58.611693,344.74652 c 2.6132,-0.3769 5.20068,-0.9831 7.84184,-1.1202 1.72441,2.1334 3.43783,4.2732 5.2244,6.3554 -2.27466,0.9467 -4.66092,1.5808 -7.0257,2.2554 -4.34385,1.1502 -8.85696,1.9471 -13.36159,1.5315 -1.24032,-0.1072 -2.43769,-0.4734 -3.67351,-0.5997 0.46687,0.9916 1.34293,1.9491 1.14594,3.1207 -0.27837,1.0731 -1.39011,1.5659 -2.31984,1.9599 -1.83151,0.8054 -3.82331,1.283 -5.50053,2.4097 2.27266,0.1885 4.53459,-0.2826 6.74508,-0.7562 8.05381,-1.9429 15.60205,-5.4491 23.44813,-8.0366 0.58047,-0.197 1.17391,-0.3513 1.7671,-0.5056 2.58748,2.761 5.23289,5.4663 8.01536,8.0304 -1.32795,1.3259 -2.92802,2.324 -4.48541,3.3564 -3.09304,1.992 -6.39605,3.7764 -10.02437,4.5473 -2.45891,0.6319 -5.09582,0.6534 -7.52902,-0.1093 -0.61266,-0.197 -1.22957,-0.3793 -1.85922,-0.5121 0.80116,1.0131 1.95984,1.8765 2.14408,3.2474 0.14356,0.8054 -0.42192,1.5014 -1.05606,1.9191 -1.80779,1.2316 -4.02478,1.5252 -6.05527,2.204 1.39011,0.6319 2.95174,0.2164 4.38879,0 4.95226,-0.7882 9.64114,-2.716 14.07911,-4.9929 3.15945,-1.5422 6.1454,-3.4059 9.16554,-5.1942 1.23158,-0.782 2.40124,-1.6623 3.69273,-2.3433 3.29652,2.7632 6.74933,5.3464 10.39712,7.6318 1.91066,1.2746 3.96062,2.3157 5.93968,3.4743 -0.42193,1.7307 -1.27876,3.3864 -2.70108,4.5024 -1.99429,1.6772 -4.72083,1.8485 -7.2077,2.0135 0.50556,0.5548 1.38362,0.8354 1.59583,1.6108 -8.06454,-2.8381 -16.38623,-5.1664 -24.94335,-5.8046 0.11984,-0.092 0.24217,-0.1777 0.36625,-0.2571 -1.75861,0.2184 -3.53419,-0.037 -5.29929,0 -4.06972,-0.056 -8.13744,0.1243 -12.20716,0.049 -4.15336,-0.047 -8.283,-1.058 -12.01218,-2.881 -1.01536,-0.4819 -2.01775,-1.2895 -2.19776,-2.4632 -0.26988,-2.2577 0.23568,-4.5089 0.15204,-6.7666 0.0107,-3.3007 -0.98965,-6.6379 -3.03936,-9.2491 -0.38548,-0.4819 -0.79692,-0.9447 -1.15244,-1.4458 1.56363,-0.8374 3.24934,-1.4158 4.9308,-1.9621 7.3922,-2.3041 14.99187,-3.872 22.61102,-5.2152 z" /><path
   style="fill:#e84f08;stroke:#e84f08;stroke-width:0.24966066"
   inkscape:connector-curvature="0"
   id="path40"
   d="m 71.677683,349.98172 c 0.45188,0.4154 0.8481,0.891 1.22533,1.3794 -0.59344,0.1543 -1.18663,0.3083 -1.7671,0.5055 -7.84608,2.5875 -15.39432,6.094 -23.44813,8.0366 -2.21049,0.4734 -4.47242,0.9447 -6.74508,0.7562 1.67722,-1.1267 3.66927,-1.6043 5.50053,-2.4097 0.92973,-0.3942 2.04122,-0.8868 2.31984,-1.9598 0.19699,-1.1717 -0.67907,-2.1291 -1.14594,-3.1208 1.23582,0.1264 2.43319,0.4926 3.67351,0.5997 4.50463,0.4157 9.01774,-0.3812 13.36159,-1.5314 2.36453,-0.6751 4.75054,-1.309 7.02545,-2.2557 z" /><path
   style="fill:#e84f08;stroke:#e84f08;stroke-width:0.24966066"
   inkscape:connector-curvature="0"
   id="path42"
   d="m 80.918123,359.39142 c 0.83961,0.6811 1.6535,1.3966 2.46115,2.1184 -1.29149,0.6811 -2.46115,1.5616 -3.69273,2.3433 -3.02014,1.7886 -6.00609,3.652 -9.16554,5.1942 -4.43822,2.2769 -9.12685,4.2048 -14.07911,4.993 -1.4373,0.2206 -2.99868,0.6361 -4.38879,0 2.03049,-0.6791 4.24748,-0.9724 6.05527,-2.204 0.63414,-0.4177 1.19962,-1.1137 1.05606,-1.9191 -0.18424,-1.3709 -1.34292,-2.234 -2.14408,-3.2474 0.62965,0.1329 1.24656,0.3149 1.85922,0.5121 2.4332,0.7624 5.07011,0.7412 7.52902,0.1093 3.62857,-0.7712 6.93133,-2.5552 10.02437,-4.5473 1.55714,-1.0326 3.15721,-2.031 4.48516,-3.3567 z" /><path
   style="fill:#e84f09;stroke:#e84f09;stroke-width:0.24966066"
   inkscape:connector-curvature="0"
   id="path44"
   d="m 99.716073,372.61592 c 0.700547,0.2999 1.390107,0.6297 2.056207,1.0047 -0.59769,2.8508 -0.94023,5.7704 -1.856977,8.5486 -0.20772,0.739 -0.97043,1.0239 -1.63228,1.2273 -2.50185,-0.2891 -4.54732,-1.8592 -6.88015,-2.6539 -0.21196,-0.7754 -1.09027,-1.056 -1.59583,-1.6108 2.48687,-0.165 5.21366,-0.3363 7.2077,-2.0135 1.42257,-1.116 2.2794,-2.7717 2.70133,-4.5024 z" /><path
   style="fill:#fc6603;stroke:#fc6603;stroke-width:0.24966066"
   inkscape:connector-curvature="0"
   id="path46"
   d="m 99.915303,382.16922 c 0.916747,-2.7782 1.259537,-5.6978 1.856977,-8.5486 0.39621,0.2314 1.15018,0.3535 0.98091,0.9789 -0.0879,1.7521 -0.29984,3.5085 -0.72177,5.2136 -0.37274,1.1974 -0.74549,2.5169 -1.75636,3.3457 -0.544007,0.4711 -1.349417,0.5184 -1.992037,0.2377 0.6621,-0.2034 1.42456,-0.4883 1.63228,-1.2273 z" />
</svg>